<mxfile host="app.diagrams.net" modified="2022-02-23T18:36:51.824Z" agent="5.0 (Windows NT 10.0; Win64; x64) AppleWebKit/537.36 (KHTML, like Gecko) Chrome/97.0.4692.99 Safari/537.36 OPR/83.0.4254.62" etag="b3LSlIiNtppwI-MUw7k_" version="16.4.5" type="github">
  <diagram id="IlxGLt2NS1xwJWBnq9o4" name="Page-1">
    <mxGraphModel dx="784" dy="823" grid="1" gridSize="10" guides="1" tooltips="1" connect="1" arrows="1" fold="1" page="1" pageScale="1" pageWidth="827" pageHeight="1169" math="0" shadow="0">
      <root>
        <mxCell id="0" />
        <mxCell id="1" parent="0" />
        <UserObject label="Хвилювання" lucidchartObjectId="WkgYEflI6K6y" id="XOR6NoBYtzovQsvjyBrv-1">
          <mxCell style="html=1;overflow=block;blockSpacing=1;whiteSpace=wrap;fontSize=11.7;align=center;spacingLeft=8.4;spacingRight=8.4;spacingTop=2.4;spacing=3.6;verticalAlign=middle;strokeOpacity=100;fillOpacity=100;rounded=1;absoluteArcSize=1;arcSize=12;fillColor=#e6d0de;strokeWidth=3;gradientColor=#d5739d;strokeColor=#996185;" parent="1" vertex="1">
            <mxGeometry x="431" y="500" width="105" height="38" as="geometry" />
          </mxCell>
        </UserObject>
        <UserObject label="" lucidchartObjectId="WkgY8TNKiiZg" id="XOR6NoBYtzovQsvjyBrv-2">
          <mxCell style="html=1;jettySize=18;whiteSpace=wrap;fontSize=13;strokeColor=#666666;strokeOpacity=100;strokeWidth=0.8;rounded=0;startArrow=none;endArrow=none;entryX=1.014;entryY=0.493;entryPerimeter=0;" parent="1" target="XOR6NoBYtzovQsvjyBrv-1" edge="1">
            <mxGeometry width="100" height="100" relative="1" as="geometry">
              <Array as="points" />
              <mxPoint x="596" y="519" as="sourcePoint" />
            </mxGeometry>
          </mxCell>
        </UserObject>
        <UserObject label="Хвороба" lucidchartObjectId="3kgYJyq~~~DP" id="XOR6NoBYtzovQsvjyBrv-3">
          <mxCell style="html=1;overflow=block;blockSpacing=1;whiteSpace=wrap;fontSize=11.7;align=center;spacingLeft=8.4;spacingRight=8.4;spacingTop=2.4;spacing=3.6;verticalAlign=middle;strokeOpacity=100;fillOpacity=100;rounded=1;absoluteArcSize=1;arcSize=12;fillColor=#e6d0de;strokeWidth=3;gradientColor=#d5739d;strokeColor=#996185;" parent="1" vertex="1">
            <mxGeometry x="618" y="349" width="105" height="38" as="geometry" />
          </mxCell>
        </UserObject>
        <UserObject label="" lucidchartObjectId="3kgYJy5.SnEX" id="XOR6NoBYtzovQsvjyBrv-4">
          <mxCell style="html=1;jettySize=18;whiteSpace=wrap;fontSize=13;strokeColor=#666666;strokeOpacity=100;strokeWidth=0.8;rounded=0;startArrow=none;endArrow=none;entryX=0.5;entryY=1.039;entryPerimeter=0;" parent="1" target="XOR6NoBYtzovQsvjyBrv-3" edge="1">
            <mxGeometry width="100" height="100" relative="1" as="geometry">
              <Array as="points" />
              <mxPoint x="671" y="486" as="sourcePoint" />
            </mxGeometry>
          </mxCell>
        </UserObject>
        <UserObject label="Недосип" lucidchartObjectId="~lgYW.i55yNB" id="XOR6NoBYtzovQsvjyBrv-5">
          <mxCell style="html=1;overflow=block;blockSpacing=1;whiteSpace=wrap;fontSize=11.7;align=center;spacingLeft=8.4;spacingRight=8.4;spacingTop=2.4;spacing=3.6;verticalAlign=middle;strokeOpacity=100;fillOpacity=100;rounded=1;absoluteArcSize=1;arcSize=12;fillColor=#e6d0de;strokeWidth=3;gradientColor=#d5739d;strokeColor=#996185;" parent="1" vertex="1">
            <mxGeometry x="806" y="499" width="105" height="38" as="geometry" />
          </mxCell>
        </UserObject>
        <UserObject label="" lucidchartObjectId="~lgYE6z.it~q" id="XOR6NoBYtzovQsvjyBrv-6">
          <mxCell style="html=1;jettySize=18;whiteSpace=wrap;fontSize=13;strokeColor=#666666;strokeOpacity=100;strokeWidth=0.8;rounded=0;startArrow=none;endArrow=none;entryX=-0.014;entryY=0.5;entryPerimeter=0;" parent="1" target="XOR6NoBYtzovQsvjyBrv-5" edge="1">
            <mxGeometry width="100" height="100" relative="1" as="geometry">
              <Array as="points" />
              <mxPoint x="746" y="518" as="sourcePoint" />
            </mxGeometry>
          </mxCell>
        </UserObject>
        <UserObject label="Робота" lucidchartObjectId="hngY6.seJ321" id="XOR6NoBYtzovQsvjyBrv-7">
          <mxCell style="html=1;overflow=block;blockSpacing=1;whiteSpace=wrap;fontSize=11.7;align=center;spacingLeft=8.4;spacingRight=8.4;spacingTop=2.4;spacing=3.6;verticalAlign=middle;strokeOpacity=100;fillOpacity=100;rounded=1;absoluteArcSize=1;arcSize=12;fillColor=#e6d0de;strokeWidth=3;gradientColor=#d5739d;strokeColor=#996185;" parent="1" vertex="1">
            <mxGeometry x="618" y="630" width="105" height="38" as="geometry" />
          </mxCell>
        </UserObject>
        <UserObject label="" lucidchartObjectId="hngYDebrbckY" id="XOR6NoBYtzovQsvjyBrv-8">
          <mxCell style="html=1;jettySize=18;whiteSpace=wrap;fontSize=13;strokeColor=#666666;strokeOpacity=100;strokeWidth=0.8;rounded=0;startArrow=none;endArrow=none;entryX=0.5;entryY=-0.039;entryPerimeter=0;" parent="1" target="XOR6NoBYtzovQsvjyBrv-7" edge="1">
            <mxGeometry width="100" height="100" relative="1" as="geometry">
              <Array as="points" />
              <mxPoint x="671" y="551" as="sourcePoint" />
            </mxGeometry>
          </mxCell>
        </UserObject>
        <UserObject label="" lucidchartObjectId="jugYfcabQg.A" id="XOR6NoBYtzovQsvjyBrv-9">
          <mxCell style="html=1;jettySize=18;whiteSpace=wrap;fontSize=13;strokeWidth=0.8;rounded=0;startArrow=none;endArrow=none;exitX=0.029;exitY=1.025;exitPerimeter=0;entryX=0.839;entryY=-0.027;entryPerimeter=0;" parent="1" source="XOR6NoBYtzovQsvjyBrv-7" target="XOR6NoBYtzovQsvjyBrv-10" edge="1">
            <mxGeometry width="100" height="100" relative="1" as="geometry">
              <Array as="points" />
            </mxGeometry>
          </mxCell>
        </UserObject>
        <UserObject label="Недостатня кількість часу на вивчення матеріалу" lucidchartObjectId="kugYfd8lDkkw" id="XOR6NoBYtzovQsvjyBrv-10">
          <mxCell style="html=1;overflow=block;blockSpacing=1;whiteSpace=wrap;fontSize=11.7;fontColor=#ffffff;align=center;spacingLeft=8.4;spacingRight=8.4;spacingTop=2.4;spacing=3.6;strokeColor=#134e4e;strokeOpacity=100;fillOpacity=100;rounded=1;absoluteArcSize=1;arcSize=12;fillColor=#259b9c;strokeWidth=1.5;" parent="1" vertex="1">
            <mxGeometry x="458" y="679" width="106" height="70" as="geometry" />
          </mxCell>
        </UserObject>
        <UserObject label="Втома" lucidchartObjectId="wxgYdP0Zdwhg" id="XOR6NoBYtzovQsvjyBrv-13">
          <mxCell style="html=1;overflow=block;blockSpacing=1;whiteSpace=wrap;fontSize=11.7;fontColor=#ffffff;align=center;spacingLeft=8.4;spacingRight=8.4;spacingTop=2.4;spacing=3.6;strokeColor=#134e4e;strokeOpacity=100;fillOpacity=100;rounded=1;absoluteArcSize=1;arcSize=12;fillColor=#259b9c;strokeWidth=1.5;" parent="1" vertex="1">
            <mxGeometry x="750" y="700" width="106" height="28" as="geometry" />
          </mxCell>
        </UserObject>
        <UserObject label="" lucidchartObjectId="wxgYBQaVhYbK" id="XOR6NoBYtzovQsvjyBrv-14">
          <mxCell style="html=1;jettySize=18;whiteSpace=wrap;fontSize=13;strokeWidth=0.8;rounded=0;startArrow=none;endArrow=none;exitX=0.955;exitY=1.033;exitPerimeter=0;entryX=0.177;entryY=-0.027;entryPerimeter=0;" parent="1" source="XOR6NoBYtzovQsvjyBrv-7" target="XOR6NoBYtzovQsvjyBrv-13" edge="1">
            <mxGeometry width="100" height="100" relative="1" as="geometry">
              <Array as="points" />
            </mxGeometry>
          </mxCell>
        </UserObject>
        <UserObject label="" lucidchartObjectId="VxgYChkSaB5M" id="XOR6NoBYtzovQsvjyBrv-15">
          <mxCell style="html=1;jettySize=18;whiteSpace=wrap;fontSize=13;strokeWidth=0.8;rounded=0;startArrow=none;endArrow=none;exitX=-0.014;exitY=0.478;exitPerimeter=0;entryX=1.007;entryY=0.53;entryPerimeter=0;" parent="1" source="XOR6NoBYtzovQsvjyBrv-1" target="XOR6NoBYtzovQsvjyBrv-16" edge="1">
            <mxGeometry width="100" height="100" relative="1" as="geometry">
              <Array as="points" />
            </mxGeometry>
          </mxCell>
        </UserObject>
        <UserObject label="Страх не скласти і вилетіти" lucidchartObjectId="WxgYILBsKOw7" id="XOR6NoBYtzovQsvjyBrv-16">
          <mxCell style="html=1;overflow=block;blockSpacing=1;whiteSpace=wrap;fontSize=11.7;fontColor=#ffffff;align=center;spacingLeft=8.4;spacingRight=8.4;spacingTop=2.4;spacing=3.6;strokeColor=#134e4e;strokeOpacity=100;fillOpacity=100;rounded=1;absoluteArcSize=1;arcSize=12;fillColor=#259b9c;strokeWidth=1.5;" parent="1" vertex="1">
            <mxGeometry x="257" y="493" width="106" height="50" as="geometry" />
          </mxCell>
        </UserObject>
        <UserObject label="Страх зробити неправильно" lucidchartObjectId="6xgY~a4V7guL" id="XOR6NoBYtzovQsvjyBrv-17">
          <mxCell style="html=1;overflow=block;blockSpacing=1;whiteSpace=wrap;fontSize=11.7;fontColor=#ffffff;align=center;spacingLeft=8.4;spacingRight=8.4;spacingTop=2.4;spacing=3.6;strokeColor=#134e4e;strokeOpacity=100;fillOpacity=100;rounded=1;absoluteArcSize=1;arcSize=12;fillColor=#259b9c;strokeWidth=1.5;" parent="1" vertex="1">
            <mxGeometry x="339" y="380" width="106" height="38" as="geometry" />
          </mxCell>
        </UserObject>
        <UserObject label="" lucidchartObjectId="6xgY6SJF.LS9" id="XOR6NoBYtzovQsvjyBrv-18">
          <mxCell style="html=1;jettySize=18;whiteSpace=wrap;fontSize=13;strokeWidth=0.8;rounded=0;startArrow=none;endArrow=none;exitX=0.248;exitY=-0.039;exitPerimeter=0;entryX=0.745;entryY=1.027;entryPerimeter=0;" parent="1" source="XOR6NoBYtzovQsvjyBrv-1" target="XOR6NoBYtzovQsvjyBrv-17" edge="1">
            <mxGeometry width="100" height="100" relative="1" as="geometry">
              <Array as="points" />
            </mxGeometry>
          </mxCell>
        </UserObject>
        <UserObject label="Особисті проблеми" lucidchartObjectId="jygYeWk7bOiA" id="XOR6NoBYtzovQsvjyBrv-19">
          <mxCell style="html=1;overflow=block;blockSpacing=1;whiteSpace=wrap;fontSize=11.7;fontColor=#ffffff;align=center;spacingLeft=8.4;spacingRight=8.4;spacingTop=2.4;spacing=3.6;strokeColor=#134e4e;strokeOpacity=100;fillOpacity=100;rounded=1;absoluteArcSize=1;arcSize=12;fillColor=#259b9c;strokeWidth=1.5;" parent="1" vertex="1">
            <mxGeometry x="339" y="615" width="106" height="35" as="geometry" />
          </mxCell>
        </UserObject>
        <UserObject label="" lucidchartObjectId="jygYLORmovcM" id="XOR6NoBYtzovQsvjyBrv-20">
          <mxCell style="html=1;jettySize=18;whiteSpace=wrap;fontSize=13;strokeWidth=0.8;rounded=0;startArrow=none;endArrow=none;exitX=0.336;exitY=1.039;exitPerimeter=0;entryX=0.615;entryY=-0.027;entryPerimeter=0;" parent="1" source="XOR6NoBYtzovQsvjyBrv-1" target="XOR6NoBYtzovQsvjyBrv-19" edge="1">
            <mxGeometry width="100" height="100" relative="1" as="geometry">
              <Array as="points" />
            </mxGeometry>
          </mxCell>
        </UserObject>
        <UserObject label="Погане самопочуття, яке не дає змоги сконцентруватись і нормально працювати" lucidchartObjectId="3whYgk-G4yv." id="XOR6NoBYtzovQsvjyBrv-23">
          <mxCell style="html=1;overflow=block;blockSpacing=1;whiteSpace=wrap;fontSize=11.7;fontColor=#ffffff;align=center;spacingLeft=8.4;spacingRight=8.4;spacingTop=2.4;spacing=3.6;strokeColor=#134e4e;strokeOpacity=100;fillOpacity=100;rounded=1;absoluteArcSize=1;arcSize=12;fillColor=#259b9c;strokeWidth=1.5;" parent="1" vertex="1">
            <mxGeometry x="731" y="210" width="106" height="110" as="geometry" />
          </mxCell>
        </UserObject>
        <UserObject label="" lucidchartObjectId="3whYiUiTzqOm" id="XOR6NoBYtzovQsvjyBrv-24">
          <mxCell style="html=1;jettySize=18;whiteSpace=wrap;fontSize=13;strokeWidth=0.8;rounded=0;startArrow=none;endArrow=none;exitX=0.854;exitY=-0.039;exitPerimeter=0;entryX=0.252;entryY=1.027;entryPerimeter=0;" parent="1" source="XOR6NoBYtzovQsvjyBrv-3" target="XOR6NoBYtzovQsvjyBrv-23" edge="1">
            <mxGeometry width="100" height="100" relative="1" as="geometry">
              <Array as="points" />
            </mxGeometry>
          </mxCell>
        </UserObject>
        <UserObject label="Лежання в лікарні і не присутність на лекціях та практиках через це" lucidchartObjectId="4whYldrLjl66" id="XOR6NoBYtzovQsvjyBrv-25">
          <mxCell style="html=1;overflow=block;blockSpacing=1;whiteSpace=wrap;fontSize=11.7;fontColor=#ffffff;align=center;spacingLeft=8.4;spacingRight=8.4;spacingTop=2.4;spacing=3.6;strokeColor=#134e4e;strokeOpacity=100;fillOpacity=100;rounded=1;absoluteArcSize=1;arcSize=12;fillColor=#259b9c;strokeWidth=1.5;" parent="1" vertex="1">
            <mxGeometry x="500" y="210" width="106" height="110" as="geometry" />
          </mxCell>
        </UserObject>
        <UserObject label="" lucidchartObjectId="4whYlrpW.02l" id="XOR6NoBYtzovQsvjyBrv-26">
          <mxCell style="html=1;jettySize=18;whiteSpace=wrap;fontSize=13;strokeWidth=0.8;rounded=0;startArrow=none;endArrow=none;exitX=0.12;exitY=-0.039;exitPerimeter=0;entryX=0.766;entryY=1.027;entryPerimeter=0;" parent="1" source="XOR6NoBYtzovQsvjyBrv-3" target="XOR6NoBYtzovQsvjyBrv-25" edge="1">
            <mxGeometry width="100" height="100" relative="1" as="geometry">
              <Array as="points" />
            </mxGeometry>
          </mxCell>
        </UserObject>
        <UserObject label="Заучування вдень і вночі матеріалу" lucidchartObjectId="gxhY1Q0b-Yy9" id="XOR6NoBYtzovQsvjyBrv-29">
          <mxCell style="html=1;overflow=block;blockSpacing=1;whiteSpace=wrap;fontSize=11.7;fontColor=#ffffff;align=center;spacingLeft=8.4;spacingRight=8.4;spacingTop=2.4;spacing=3.6;strokeColor=#134e4e;strokeOpacity=100;fillOpacity=100;rounded=1;absoluteArcSize=1;arcSize=12;fillColor=#259b9c;strokeWidth=1.5;" parent="1" vertex="1">
            <mxGeometry x="871" y="604" width="106" height="56" as="geometry" />
          </mxCell>
        </UserObject>
        <UserObject label="" lucidchartObjectId="gxhYDr~MpP5R" id="XOR6NoBYtzovQsvjyBrv-30">
          <mxCell style="html=1;jettySize=18;whiteSpace=wrap;fontSize=13;strokeWidth=0.8;rounded=0;startArrow=none;endArrow=none;exitX=0.631;exitY=1.039;exitPerimeter=0;entryX=0.408;entryY=-0.027;entryPerimeter=0;" parent="1" source="XOR6NoBYtzovQsvjyBrv-5" target="XOR6NoBYtzovQsvjyBrv-29" edge="1">
            <mxGeometry width="100" height="100" relative="1" as="geometry">
              <Array as="points" />
            </mxGeometry>
          </mxCell>
        </UserObject>
        <UserObject label="Гра в комп&#39;ютерні ігри" lucidchartObjectId="hxhYtX11IUtz" id="XOR6NoBYtzovQsvjyBrv-31">
          <mxCell style="html=1;overflow=block;blockSpacing=1;whiteSpace=wrap;fontSize=11.7;fontColor=#ffffff;align=center;spacingLeft=8.4;spacingRight=8.4;spacingTop=2.4;spacing=3.6;strokeColor=#134e4e;strokeOpacity=100;fillOpacity=100;rounded=1;absoluteArcSize=1;arcSize=12;fillColor=#259b9c;strokeWidth=1.5;" parent="1" vertex="1">
            <mxGeometry x="875" y="373" width="106" height="51" as="geometry" />
          </mxCell>
        </UserObject>
        <UserObject label="" lucidchartObjectId="hxhYGgEa.qN4" id="XOR6NoBYtzovQsvjyBrv-32">
          <mxCell style="html=1;jettySize=18;whiteSpace=wrap;fontSize=13;strokeWidth=0.8;rounded=0;startArrow=none;endArrow=none;exitX=0.604;exitY=-0.039;exitPerimeter=0;entryX=0.427;entryY=1.027;entryPerimeter=0;" parent="1" source="XOR6NoBYtzovQsvjyBrv-5" target="XOR6NoBYtzovQsvjyBrv-31" edge="1">
            <mxGeometry width="100" height="100" relative="1" as="geometry">
              <Array as="points" />
            </mxGeometry>
          </mxCell>
        </UserObject>
        <UserObject label="Причини не здачі екзамену" lucidchartObjectId="WkgYEflI6K6y" id="XOR6NoBYtzovQsvjyBrv-53">
          <mxCell style="html=1;overflow=block;blockSpacing=1;whiteSpace=wrap;fontSize=11.7;align=center;spacingLeft=8.4;spacingRight=8.4;spacingTop=2.4;spacing=3.6;verticalAlign=middle;strokeOpacity=100;fillOpacity=100;rounded=1;absoluteArcSize=1;arcSize=12;fillColor=#e1d5e7;strokeWidth=3;strokeColor=#9673a6;" parent="1" vertex="1">
            <mxGeometry x="600" y="480" width="150" height="70" as="geometry" />
          </mxCell>
        </UserObject>
        <UserObject label="Вигорання" lucidchartObjectId="wxgYdP0Zdwhg" id="XOR6NoBYtzovQsvjyBrv-55">
          <mxCell style="html=1;overflow=block;blockSpacing=1;whiteSpace=wrap;fontSize=11.7;fontColor=#ffffff;align=center;spacingLeft=8.4;spacingRight=8.4;spacingTop=2.4;spacing=3.6;strokeColor=#134e4e;strokeOpacity=100;fillOpacity=100;rounded=1;absoluteArcSize=1;arcSize=12;fillColor=#259b9c;strokeWidth=1.5;" parent="1" vertex="1">
            <mxGeometry x="617" y="710" width="106" height="28" as="geometry" />
          </mxCell>
        </UserObject>
        <UserObject label="" lucidchartObjectId="wxgYBQaVhYbK" id="XOR6NoBYtzovQsvjyBrv-57">
          <mxCell style="html=1;jettySize=18;whiteSpace=wrap;fontSize=13;strokeWidth=0.8;rounded=0;startArrow=none;endArrow=none;exitX=0.5;exitY=1;entryX=0.5;entryY=0;exitDx=0;exitDy=0;entryDx=0;entryDy=0;" parent="1" source="XOR6NoBYtzovQsvjyBrv-7" target="XOR6NoBYtzovQsvjyBrv-55" edge="1">
            <mxGeometry width="100" height="100" relative="1" as="geometry">
              <Array as="points" />
              <mxPoint x="728.2749999999999" y="679.2539999999999" as="sourcePoint" />
              <mxPoint x="797.762" y="709.2439999999999" as="targetPoint" />
            </mxGeometry>
          </mxCell>
        </UserObject>
        <UserObject label="Недостатні знання матеріалу" lucidchartObjectId="~lgYW.i55yNB" id="olEDLrhZOGbl-vZgnfTB-1">
          <mxCell style="html=1;overflow=block;blockSpacing=1;whiteSpace=wrap;fontSize=11.7;align=center;spacingLeft=8.4;spacingRight=8.4;spacingTop=2.4;spacing=3.6;verticalAlign=middle;strokeOpacity=100;fillOpacity=100;rounded=1;absoluteArcSize=1;arcSize=12;fillColor=#e6d0de;strokeWidth=3;gradientColor=#d5739d;strokeColor=#996185;" vertex="1" parent="1">
            <mxGeometry x="890" y="260" width="105" height="70" as="geometry" />
          </mxCell>
        </UserObject>
        <UserObject label="" lucidchartObjectId="~lgYE6z.it~q" id="olEDLrhZOGbl-vZgnfTB-2">
          <mxCell style="html=1;jettySize=18;whiteSpace=wrap;fontSize=13;strokeColor=#666666;strokeOpacity=100;strokeWidth=0.8;rounded=0;startArrow=none;endArrow=none;entryX=0;entryY=0.5;entryDx=0;entryDy=0;exitX=1;exitY=0;exitDx=0;exitDy=0;" edge="1" parent="1" source="XOR6NoBYtzovQsvjyBrv-53" target="olEDLrhZOGbl-vZgnfTB-1">
            <mxGeometry width="100" height="100" relative="1" as="geometry">
              <Array as="points">
                <mxPoint x="790" y="420" />
              </Array>
              <mxPoint x="756" y="528" as="sourcePoint" />
              <mxPoint x="814.5300000000002" y="528" as="targetPoint" />
            </mxGeometry>
          </mxCell>
        </UserObject>
        <UserObject label="Особисте" lucidchartObjectId="~lgYW.i55yNB" id="olEDLrhZOGbl-vZgnfTB-5">
          <mxCell style="html=1;overflow=block;blockSpacing=1;whiteSpace=wrap;fontSize=11.7;align=center;spacingLeft=8.4;spacingRight=8.4;spacingTop=2.4;spacing=3.6;verticalAlign=middle;strokeOpacity=100;fillOpacity=100;rounded=1;absoluteArcSize=1;arcSize=12;fillColor=#e6d0de;strokeWidth=3;gradientColor=#d5739d;strokeColor=#996185;" vertex="1" parent="1">
            <mxGeometry x="890" y="719" width="105" height="30" as="geometry" />
          </mxCell>
        </UserObject>
        <UserObject label="" lucidchartObjectId="~lgYE6z.it~q" id="olEDLrhZOGbl-vZgnfTB-6">
          <mxCell style="html=1;jettySize=18;whiteSpace=wrap;fontSize=13;strokeColor=#666666;strokeOpacity=100;strokeWidth=0.8;rounded=0;startArrow=none;endArrow=none;entryX=0;entryY=0.5;entryDx=0;entryDy=0;exitX=1;exitY=1;exitDx=0;exitDy=0;" edge="1" parent="1" source="XOR6NoBYtzovQsvjyBrv-53" target="olEDLrhZOGbl-vZgnfTB-5">
            <mxGeometry width="100" height="100" relative="1" as="geometry">
              <Array as="points" />
              <mxPoint x="756" y="528" as="sourcePoint" />
              <mxPoint x="814.5300000000002" y="528" as="targetPoint" />
            </mxGeometry>
          </mxCell>
        </UserObject>
        <UserObject label="" lucidchartObjectId="hxhYGgEa.qN4" id="olEDLrhZOGbl-vZgnfTB-7">
          <mxCell style="html=1;jettySize=18;whiteSpace=wrap;fontSize=13;strokeWidth=0.8;rounded=0;startArrow=none;endArrow=none;entryX=0;entryY=0.5;exitX=0.75;exitY=0;exitDx=0;exitDy=0;entryDx=0;entryDy=0;" edge="1" parent="1" source="olEDLrhZOGbl-vZgnfTB-5" target="olEDLrhZOGbl-vZgnfTB-12">
            <mxGeometry width="100" height="100" relative="1" as="geometry">
              <Array as="points" />
              <mxPoint x="960" y="719" as="sourcePoint" />
              <mxPoint x="1020.842" y="646.857" as="targetPoint" />
            </mxGeometry>
          </mxCell>
        </UserObject>
        <UserObject label="" lucidchartObjectId="gxhYDr~MpP5R" id="olEDLrhZOGbl-vZgnfTB-10">
          <mxCell style="html=1;jettySize=18;whiteSpace=wrap;fontSize=13;strokeWidth=0.8;rounded=0;startArrow=none;endArrow=none;exitX=0.75;exitY=1;exitDx=0;exitDy=0;entryX=0;entryY=0.5;entryDx=0;entryDy=0;" edge="1" parent="1" source="olEDLrhZOGbl-vZgnfTB-5" target="olEDLrhZOGbl-vZgnfTB-14">
            <mxGeometry width="100" height="100" relative="1" as="geometry">
              <Array as="points" />
              <mxPoint x="995.0050000000001" y="770.002" as="sourcePoint" />
              <mxPoint x="1020" y="810" as="targetPoint" />
            </mxGeometry>
          </mxCell>
        </UserObject>
        <UserObject label="Стосунки/проблема в стосунках" lucidchartObjectId="gxhY1Q0b-Yy9" id="olEDLrhZOGbl-vZgnfTB-12">
          <mxCell style="html=1;overflow=block;blockSpacing=1;whiteSpace=wrap;fontSize=11.7;fontColor=#ffffff;align=center;spacingLeft=8.4;spacingRight=8.4;spacingTop=2.4;spacing=3.6;strokeColor=#134e4e;strokeOpacity=100;fillOpacity=100;rounded=1;absoluteArcSize=1;arcSize=12;fillColor=#259b9c;strokeWidth=1.5;" vertex="1" parent="1">
            <mxGeometry x="1020" y="630" width="106" height="56" as="geometry" />
          </mxCell>
        </UserObject>
        <UserObject label="Сімейні конфлікти" lucidchartObjectId="gxhY1Q0b-Yy9" id="olEDLrhZOGbl-vZgnfTB-14">
          <mxCell style="html=1;overflow=block;blockSpacing=1;whiteSpace=wrap;fontSize=11.7;fontColor=#ffffff;align=center;spacingLeft=8.4;spacingRight=8.4;spacingTop=2.4;spacing=3.6;strokeColor=#134e4e;strokeOpacity=100;fillOpacity=100;rounded=1;absoluteArcSize=1;arcSize=12;fillColor=#259b9c;strokeWidth=1.5;" vertex="1" parent="1">
            <mxGeometry x="1020" y="780" width="106" height="56" as="geometry" />
          </mxCell>
        </UserObject>
        <UserObject label="Погана інфраструктура" lucidchartObjectId="WkgYEflI6K6y" id="olEDLrhZOGbl-vZgnfTB-15">
          <mxCell style="html=1;overflow=block;blockSpacing=1;whiteSpace=wrap;fontSize=11.7;align=center;spacingLeft=8.4;spacingRight=8.4;spacingTop=2.4;spacing=3.6;verticalAlign=middle;strokeOpacity=100;fillOpacity=100;rounded=1;absoluteArcSize=1;arcSize=12;fillColor=#e6d0de;strokeWidth=3;gradientColor=#d5739d;strokeColor=#996185;" vertex="1" parent="1">
            <mxGeometry x="309" y="686" width="105" height="38" as="geometry" />
          </mxCell>
        </UserObject>
        <UserObject label="" lucidchartObjectId="WkgY8TNKiiZg" id="olEDLrhZOGbl-vZgnfTB-17">
          <mxCell style="html=1;jettySize=18;whiteSpace=wrap;fontSize=13;strokeColor=#666666;strokeOpacity=100;strokeWidth=0.8;rounded=0;startArrow=none;endArrow=none;entryX=1;entryY=0;entryDx=0;entryDy=0;exitX=0;exitY=1;exitDx=0;exitDy=0;" edge="1" parent="1" source="XOR6NoBYtzovQsvjyBrv-53" target="olEDLrhZOGbl-vZgnfTB-15">
            <mxGeometry width="100" height="100" relative="1" as="geometry">
              <Array as="points" />
              <mxPoint x="606" y="529" as="sourcePoint" />
              <mxPoint x="547.47" y="528.7339999999999" as="targetPoint" />
            </mxGeometry>
          </mxCell>
        </UserObject>
        <UserObject label="" lucidchartObjectId="jygYLORmovcM" id="olEDLrhZOGbl-vZgnfTB-18">
          <mxCell style="html=1;jettySize=18;whiteSpace=wrap;fontSize=13;strokeWidth=0.8;rounded=0;startArrow=none;endArrow=none;exitX=0.25;exitY=1;exitDx=0;exitDy=0;entryX=1;entryY=0.5;entryDx=0;entryDy=0;" edge="1" parent="1" source="olEDLrhZOGbl-vZgnfTB-15" target="olEDLrhZOGbl-vZgnfTB-21">
            <mxGeometry width="100" height="100" relative="1" as="geometry">
              <Array as="points" />
              <mxPoint x="476.2800000000002" y="549.482" as="sourcePoint" />
              <mxPoint x="280" y="790" as="targetPoint" />
            </mxGeometry>
          </mxCell>
        </UserObject>
        <UserObject label="" lucidchartObjectId="jygYLORmovcM" id="olEDLrhZOGbl-vZgnfTB-19">
          <mxCell style="html=1;jettySize=18;whiteSpace=wrap;fontSize=13;strokeWidth=0.8;rounded=0;startArrow=none;endArrow=none;exitX=0.25;exitY=0;exitDx=0;exitDy=0;entryX=1;entryY=0.5;entryDx=0;entryDy=0;" edge="1" parent="1" source="olEDLrhZOGbl-vZgnfTB-15" target="olEDLrhZOGbl-vZgnfTB-20">
            <mxGeometry width="100" height="100" relative="1" as="geometry">
              <Array as="points" />
              <mxPoint x="486.2800000000002" y="559.482" as="sourcePoint" />
              <mxPoint x="230" y="630" as="targetPoint" />
            </mxGeometry>
          </mxCell>
        </UserObject>
        <UserObject label="Поганий Інтернет на дистанційній формі навчання" lucidchartObjectId="jygYeWk7bOiA" id="olEDLrhZOGbl-vZgnfTB-20">
          <mxCell style="html=1;overflow=block;blockSpacing=1;whiteSpace=wrap;fontSize=11.7;fontColor=#ffffff;align=center;spacingLeft=8.4;spacingRight=8.4;spacingTop=2.4;spacing=3.6;strokeColor=#134e4e;strokeOpacity=100;fillOpacity=100;rounded=1;absoluteArcSize=1;arcSize=12;fillColor=#259b9c;strokeWidth=1.5;" vertex="1" parent="1">
            <mxGeometry x="130" y="590" width="106" height="80" as="geometry" />
          </mxCell>
        </UserObject>
        <UserObject label="Запізнення в університет через затори, проблеми з громадським транспортом" lucidchartObjectId="jygYeWk7bOiA" id="olEDLrhZOGbl-vZgnfTB-21">
          <mxCell style="html=1;overflow=block;blockSpacing=1;whiteSpace=wrap;fontSize=11.7;fontColor=#ffffff;align=center;spacingLeft=8.4;spacingRight=8.4;spacingTop=2.4;spacing=3.6;strokeColor=#134e4e;strokeOpacity=100;fillOpacity=100;rounded=1;absoluteArcSize=1;arcSize=12;fillColor=#259b9c;strokeWidth=1.5;" vertex="1" parent="1">
            <mxGeometry x="130" y="770" width="106" height="100" as="geometry" />
          </mxCell>
        </UserObject>
      </root>
    </mxGraphModel>
  </diagram>
</mxfile>
